<svg id="visual" viewBox="0 0 960 540" width="960" height="540" xmlns="http://www.w3.org/2000/svg" xmlns:xlink="http://www.w3.org/1999/xlink" version="1.1"><rect x="0" y="0" width="960" height="540" fill="#eaf7ff"></rect><defs><linearGradient id="grad1_0" x1="43.8%" y1="0%" x2="100%" y2="100%"><stop offset="14.444444444444446%" stop-color="#305771" stop-opacity="1"></stop><stop offset="85.55555555555554%" stop-color="#305771" stop-opacity="1"></stop></linearGradient></defs><defs><linearGradient id="grad1_1" x1="43.8%" y1="0%" x2="100%" y2="100%"><stop offset="14.444444444444446%" stop-color="#305771" stop-opacity="1"></stop><stop offset="85.55555555555554%" stop-color="#5d7c92" stop-opacity="1"></stop></linearGradient></defs><defs><linearGradient id="grad1_2" x1="43.8%" y1="0%" x2="100%" y2="100%"><stop offset="14.444444444444446%" stop-color="#8aa4b5" stop-opacity="1"></stop><stop offset="85.55555555555554%" stop-color="#5d7c92" stop-opacity="1"></stop></linearGradient></defs><defs><linearGradient id="grad1_3" x1="43.8%" y1="0%" x2="100%" y2="100%"><stop offset="14.444444444444446%" stop-color="#8aa4b5" stop-opacity="1"></stop><stop offset="85.55555555555554%" stop-color="#b9cdd9" stop-opacity="1"></stop></linearGradient></defs><defs><linearGradient id="grad1_4" x1="43.8%" y1="0%" x2="100%" y2="100%"><stop offset="14.444444444444446%" stop-color="#eaf7ff" stop-opacity="1"></stop><stop offset="85.55555555555554%" stop-color="#b9cdd9" stop-opacity="1"></stop></linearGradient></defs><defs><linearGradient id="grad2_0" x1="0%" y1="0%" x2="56.3%" y2="100%"><stop offset="14.444444444444446%" stop-color="#305771" stop-opacity="1"></stop><stop offset="85.55555555555554%" stop-color="#305771" stop-opacity="1"></stop></linearGradient></defs><defs><linearGradient id="grad2_1" x1="0%" y1="0%" x2="56.3%" y2="100%"><stop offset="14.444444444444446%" stop-color="#5d7c92" stop-opacity="1"></stop><stop offset="85.55555555555554%" stop-color="#305771" stop-opacity="1"></stop></linearGradient></defs><defs><linearGradient id="grad2_2" x1="0%" y1="0%" x2="56.3%" y2="100%"><stop offset="14.444444444444446%" stop-color="#5d7c92" stop-opacity="1"></stop><stop offset="85.55555555555554%" stop-color="#8aa4b5" stop-opacity="1"></stop></linearGradient></defs><defs><linearGradient id="grad2_3" x1="0%" y1="0%" x2="56.3%" y2="100%"><stop offset="14.444444444444446%" stop-color="#b9cdd9" stop-opacity="1"></stop><stop offset="85.55555555555554%" stop-color="#8aa4b5" stop-opacity="1"></stop></linearGradient></defs><defs><linearGradient id="grad2_4" x1="0%" y1="0%" x2="56.3%" y2="100%"><stop offset="14.444444444444446%" stop-color="#b9cdd9" stop-opacity="1"></stop><stop offset="85.55555555555554%" stop-color="#eaf7ff" stop-opacity="1"></stop></linearGradient></defs><g transform="translate(960, 0)"><path d="M0 189C-15.6 186.4 -31.2 183.8 -48.7 181.6C-66.1 179.4 -85.4 177.5 -94.5 163.7C-103.6 149.9 -102.4 124.1 -109.6 109.6C-116.8 95.1 -132.3 92 -144.6 83.5C-156.9 75 -166 61.1 -172.9 46.3C-179.8 31.5 -184.4 15.8 -189 0L0 0Z" fill="#d1e2ec"></path><path d="M0 151.2C-12.5 149.1 -25 147.1 -38.9 145.3C-52.9 143.5 -68.3 142 -75.6 130.9C-82.9 119.9 -81.9 99.3 -87.7 87.7C-93.4 76.1 -105.9 73.6 -115.7 66.8C-125.6 60 -132.8 48.9 -138.3 37.1C-143.8 25.2 -147.5 12.6 -151.2 0L0 0Z" fill="#a1b8c7"></path><path d="M0 113.4C-9.4 111.8 -18.7 110.3 -29.2 109C-39.7 107.6 -51.3 106.5 -56.7 98.2C-62.1 89.9 -61.5 74.4 -65.8 65.8C-70.1 57.1 -79.4 55.2 -86.8 50.1C-94.2 45 -99.6 36.7 -103.7 27.8C-107.9 18.9 -110.6 9.5 -113.4 0L0 0Z" fill="#7490a4"></path><path d="M0 75.6C-6.2 74.6 -12.5 73.5 -19.5 72.6C-26.4 71.7 -34.2 71 -37.8 65.5C-41.4 59.9 -41 49.6 -43.8 43.8C-46.7 38.1 -52.9 36.8 -57.9 33.4C-62.8 30 -66.4 24.5 -69.2 18.5C-71.9 12.6 -73.8 6.3 -75.6 0L0 0Z" fill="#476981"></path><path d="M0 37.8C-3.1 37.3 -6.2 36.8 -9.7 36.3C-13.2 35.9 -17.1 35.5 -18.9 32.7C-20.7 30 -20.5 24.8 -21.9 21.9C-23.4 19 -26.5 18.4 -28.9 16.7C-31.4 15 -33.2 12.2 -34.6 9.3C-36 6.3 -36.9 3.2 -37.8 0L0 0Z" fill="#305771"></path></g><g transform="translate(0, 540)"><path d="M0 -189C15.4 -184.6 30.8 -180.1 47.1 -175.8C63.5 -171.5 80.8 -167.3 89.5 -155C98.2 -142.7 98.4 -122.4 113.1 -113.1C127.9 -103.9 157.4 -105.7 163.7 -94.5C170 -83.3 153.2 -59.1 153.6 -41.2C154 -23.2 171.5 -11.6 189 0L0 0Z" fill="#d1e2ec"></path><path d="M0 -151.2C12.3 -147.6 24.6 -144.1 37.7 -140.6C50.8 -137.2 64.6 -133.8 71.6 -124C78.6 -114.2 78.7 -97.9 90.5 -90.5C102.3 -83.1 125.9 -84.6 130.9 -75.6C136 -66.6 122.6 -47.3 122.9 -32.9C123.2 -18.6 137.2 -9.3 151.2 0L0 0Z" fill="#a1b8c7"></path><path d="M0 -113.4C9.2 -110.7 18.5 -108.1 28.3 -105.5C38.1 -102.9 48.5 -100.4 53.7 -93C58.9 -85.6 59 -73.4 67.9 -67.9C76.8 -62.3 94.4 -63.4 98.2 -56.7C102 -50 91.9 -35.4 92.1 -24.7C92.4 -13.9 102.9 -7 113.4 0L0 0Z" fill="#7490a4"></path><path d="M0 -75.6C6.2 -73.8 12.3 -72 18.8 -70.3C25.4 -68.6 32.3 -66.9 35.8 -62C39.3 -57.1 39.3 -49 45.3 -45.3C51.2 -41.6 62.9 -42.3 65.5 -37.8C68 -33.3 61.3 -23.6 61.4 -16.5C61.6 -9.3 68.6 -4.6 75.6 0L0 0Z" fill="#476981"></path><path d="M0 -37.8C3.1 -36.9 6.2 -36 9.4 -35.2C12.7 -34.3 16.2 -33.5 17.9 -31C19.6 -28.5 19.7 -24.5 22.6 -22.6C25.6 -20.8 31.5 -21.1 32.7 -18.9C34 -16.7 30.6 -11.8 30.7 -8.2C30.8 -4.6 34.3 -2.3 37.8 0L0 0Z" fill="#305771"></path></g></svg>